<?xml version="1.0" encoding="UTF-8"?>
<svg id="Layer_6" data-name="Layer 6" xmlns="http://www.w3.org/2000/svg" viewBox="0 0 379.34 234">
  <defs>
    <style>
      .cls-1 {
        fill: #ffdeb8;
      }

      .cls-2 {
        fill: #ffb000;
      }

      .cls-3 {
        fill: #c4e6ff;
      }

      .cls-4 {
        fill: #ff7f00;
      }
    </style>
  </defs>
  <g>
    <g>
      <path class="cls-2" d="M238.78,75.74c3.72,4.54,8.28,6.82,13.67,6.82,5.73,0,10.29-2.12,13.67-6.33,3.48-4.31,5.21-9.96,5.21-16.98s-1.73-12.59-5.21-16.73c-3.38-4.22-7.94-6.33-13.67-6.33-5.39,0-9.95,2.27-13.67,6.82-.47.56-.91,1.14-1.31,1.73l-3.71-2.32c1.63-4.25,9.8-12.45,19.6-12.45,19.6,0,24.5,20.06,24.5,29.57s-6.53,28.01-24.5,28.01c-13.07,0-17.59-8.29-19.6-12.45l3.14-1.98c.54.9,1.16,1.77,1.88,2.63Z"/>
      <path class="cls-2" d="M233.77,42.41l3.71,2.32c-2.79,4.17-3.71,9.21-3.71,14.8,0,5.24.78,9.68,3.14,13.59l-3.14,1.98-.72,35.71h-5.8V31.27c3.25,0,5.93,2.52,6.16,5.76l.36,5.38Z"/>
      <polygon class="cls-4" points="233.05 110.8 233.01 112.44 233 120.61 227.23 120.61 227.25 110.8 233.05 110.8"/>
      <path class="cls-2" d="M233,120.61l-.11,68.72c0,1.59-.65,3.02-1.7,4.06s-2.48,1.68-4.07,1.68l.11-74.46h5.77Z"/>
    </g>
    <g>
      <path class="cls-2" d="M331.41,133.13c-1.4,1.47-2.6,3.07-3.59,4.82l-3.3-2.47c1.71-4.26,4.34-7.63,7.89-10.11,3.54-2.58,7.48-3.87,11.79-3.87,6.03,0,11.15,2.3,15.37,6.91,4.31,4.72,6.47,10.32,6.47,16.84v49.83c-1.58,0-3.02-.64-4.07-1.68-1.05-1.03-1.68-2.47-1.68-4.07v-44.08c0-4.93-1.58-9.15-4.75-12.62-3.15-3.48-6.94-5.23-11.33-5.23-4.8,0-9.05,1.91-12.79,5.73Z"/>
      <path class="cls-2" d="M327.82,137.95c-1.67,2.89-2.76,6.17-3.3,9.82v41.56c0,3.18-2.58,5.75-5.75,5.75v-71.71c1.58,0,3.02.64,4.07,1.68s1.68,2.48,1.68,4.07v6.37l3.3,2.47Z"/>
      <path class="cls-2" d="M294.63,157.27c0-8.2-2.01-15.24-6.03-21.1-4.02-5.75-8.92-8.62-14.65-8.62-6.32,0-11.35,2.71-15.09,8.15-3.82,5.44-5.75,12.62-5.75,21.57s1.93,16.15,5.75,21.57c3.74,5.44,8.77,8.15,15.09,8.15,5.73,0,10.63-2.87,14.65-8.62,4.02-5.86,6.03-12.89,6.03-21.1ZM294.63,138.32v-8.44c0-3.48,2.58-6.29,5.75-6.29v76.58c0,9.46-2.35,16.76-7.04,21.92-4.59,5.28-11.11,7.9-19.53,7.9-7.28,0-13.46-2.45-18.54-7.35-5.16-5.05-7.76-11.06-7.76-18.05,1.39,0,2.71.47,3.79,1.32s1.89,2.06,2.29,3.53c.88,3.27,2.69,6.19,5.42,8.77,4.12,3.67,9.05,5.52,14.8,5.52,6.32,0,11.35-2.14,15.07-6.43,3.84-4.31,5.75-10.08,5.75-17.31l.2-21.49c-1.81,5.16-3.27,7.06-7.01,9.99-3.82,3.07-9.59,5-14,5-8.04,0-15.2-3.76-19.99-10.99-4.9-7.37-6.01-13.98-6.01-26s2.12-17.64,7.01-25c4.79-7.23,11.07-10.66,19.12-10.66,4.69,0,8.95,1.6,12.79,4.79,3.72,3.2,6.35,7.43,7.89,12.71Z"/>
      <path class="cls-2" d="M157.32,156.03v3.18h-6.24c2.11-4.33,3.87-8.84,5.32-13.54.62,3.18.91,6.65.91,10.35Z"/>
      <path class="cls-2" d="M157.22,174.55h.1c-.96,6.61-4.02,12.12-9.19,16.49s-11.2,6.57-18.1,6.57c-4.38,0-8.28-.98-11.73-2.94,2.37-1.09,4.67-2.38,6.91-3.9,1.52.41,3.12.6,4.82.6,4.88,0,9.28-1.5,13.21-4.54,2.68-2.09,4.8-4.61,6.39-7.56,1.52-2.84,4.36-4.72,7.59-4.72Z"/>
      <path class="cls-4" d="M149.04,152.83c1.4,0,2.53-1.13,2.53-2.53-.47-6.61-2.78-12.23-6.89-16.84-4.21-4.49-9.1-6.73-14.65-6.73s-10.4,2.3-14.52,6.91c-4.21,4.7-6.55,10.48-7.04,17.33v1.86h40.57ZM156.4,145.67c-1.45,4.7-3.22,9.21-5.32,13.54h-42.61c0,9.77,1.96,17.57,5.9,23.4,2.91,4.33,6.52,7.04,10.84,8.15-2.24,1.52-4.54,2.81-6.91,3.9-3.05-1.71-5.77-4.23-8.1-7.5-4.98-7.07-7.46-16.4-7.46-27.96,0-2.17.08-4.26.26-6.27.75-8.69,3.15-15.92,7.2-21.67,4.98-6.96,11.58-10.44,19.83-10.44s14.83,3.2,19.81,9.6c3.25,4.16,5.44,9.24,6.57,15.24Z"/>
      <path class="cls-3" d="M144.68,133.46c4.12,4.61,6.42,10.22,6.89,16.84,0,1.4-1.13,2.53-2.53,2.53h-40.57v-1.86c.49-6.84,2.83-12.62,7.04-17.33,4.12-4.61,8.95-6.91,14.52-6.91s10.44,2.24,14.65,6.73Z"/>
      <path class="cls-3" d="M108.47,159.21h42.61c-2.35,4.92-5.13,9.59-8.33,14.01-5.37,7.46-11.22,13.33-17.54,17.54-4.33-1.11-7.94-3.82-10.84-8.15-3.94-5.83-5.9-13.64-5.9-23.4Z"/>
      <path class="cls-2" d="M179.95,87.61c0,5.16,1.7,9.6,5.08,13.33,3.38,3.59,7.45,5.41,12.22,5.41,5.49,0,9.91-1.63,13.29-4.87,3.3-3.36,4.95-7.74,4.95-13.15,0-4.08-1.75-7.56-5.21-10.45-3.48-2.76-8.15-4.49-14-5.23-6.22-.72-11.17-2.99-14.81-6.84-.57-.59-1.11-1.21-1.6-1.85l.08,23.65ZM147.57,39.76c-3.15,3.01-5.23,6.68-6.17,11.02-1.81-2.27-3.69-4.36-5.62-6.27v-12.98c2.96,0,5.36,2.4,5.36,5.36v4.87c1.62-3.59,4.07-6.43,7.38-8.53,3.3-2.17,6.96-3.27,10.99-3.27,5.62,0,10.4,1.94,14.34,5.83,1.76,1.73,3.14,3.64,4.13,5.68.88-1.76,2.06-3.32,3.49-4.65,3.74-3.48,9-5.23,15.78-5.23s11.66,1.86,15.5,5.59c3.92,3.72,5.9,8.7,5.9,14.94h-.36c-2.69,0-4.98-1.8-5.86-4.34-.91-2.66-2.32-4.88-4.2-6.65-2.84-2.63-6.5-3.95-10.97-3.95-4.95,0-8.88,1.32-11.81,3.95-2.92,2.65-4.39,6.12-4.39,10.45,0,4.08,1.8,7.56,5.36,10.45,3.48,2.76,8.13,4.49,14,5.23,6.12.72,11.06,3.12,14.81,7.2,3.66,4.08,5.32,9.18,5.49,15.3.23,9.11-7.94,27.08-27.75,27.73-5.42.18-9.73,1.39-12.93,4.16-3.22,2.78-4.82,6.45-4.82,10.99s1.96,7.97,5.86,11.01c3.82,2.91,8.93,4.74,15.35,5.49,6.71.77,12.12,3.28,16.23,7.59,4.02,4.3,6.01,9.65,6.01,16.1,0,7.2-2.35,12.95-7.06,17.25-4.62,4.31-10.83,6.45-18.65,6.45-6.83,0-12.59-2.53-17.3-7.58-4.82-5.06-7.22-11.19-7.22-18.39h.44c2.76,0,5.03,1.99,5.63,4.69.77,3.48,2.45,6.6,5.05,9.34,3.71,3.79,8.18,5.68,13.39,5.68,6.01,0,10.88-1.71,14.58-5.11,3.61-3.54,5.42-8.17,5.42-13.85,0-4.3-1.91-7.95-5.72-10.99-3.82-2.91-8.93-4.74-15.35-5.5-6.81-.75-12.23-3.15-16.23-7.2-4.12-4.03-6.17-9.03-6.17-14.98,0-6.7,2.06-11.87,6.17-15.53,3.92-3.49,9.33-5.32,16.23-5.49-3.95-1.01-7.41-3.2-10.42-6.57-3.41-3.74-5.5-8.08-6.27-13.05l-.69-42.04c0-4.16-1.47-7.71-4.43-10.65s-6.48-4.41-10.58-4.41c-4.47,0-8.44,1.62-11.94,4.83Z"/>
      <path class="cls-4" d="M141.39,50.79c-.1.44-.18.88-.26,1.34v39.9h-5.36v-47.51c1.93,1.91,3.81,4,5.62,6.27Z"/>
      <path class="cls-3" d="M110.2,131.27c-4.05,5.75-6.45,12.98-7.2,21.67l-3.66-.2c.1-1.71.15-3.46.15-5.24,0-13.56-3.18-25.09-9.59-34.59-6.5-9.6-14.31-14.4-23.42-14.4h-34.13V28.33h65.83c14.19,0,26.72,5.39,37.6,16.18v47.51h5.36v-39.9c.08-.46.16-.9.26-1.34.46.56.91,1.13,1.36,1.7,12.38,16.1,18.57,35.62,18.57,58.55,0,12.49-1.63,24.04-4.92,34.64-1.13-5.99-3.32-11.07-6.57-15.24-4.98-6.4-11.58-9.6-19.81-9.6s-14.85,3.48-19.83,10.44Z"/>
      <path class="cls-3" d="M102.74,159.21c0,11.56,2.48,20.89,7.46,27.96,2.34,3.27,5.05,5.78,8.1,7.5-6.29,2.91-13,4.36-20.12,4.36h-31.7c9.11,0,16.92-5.03,23.42-15.09,5.6-8.79,8.74-19.19,9.44-31.19l3.66.2c-.18,2.01-.26,4.1-.26,6.27Z"/>
      <path class="cls-4" d="M99.49,147.5c0,1.78-.05,3.53-.15,5.24-.7,12-3.84,22.41-9.44,31.19-6.5,10.06-14.31,15.09-23.42,15.09h-34.13v-100.52h34.13c9.11,0,16.92,4.8,23.42,14.4,6.4,9.5,9.59,21.04,9.59,34.59Z"/>
      <rect class="cls-1" x="32.3" y="98.51" width=".05" height="100.52"/>
    </g>
  </g>
  <g>
    <path class="cls-4" d="M8.28,199v-10.91h0c.75,0,1.36.59,1.36,1.33v8.2s7.19,0,7.19,0v-5.73h1.36v5.73s7.72,0,7.72,0c.79,0,1.43.62,1.43,1.39h0s-19.07,0-19.07,0Z"/>
    <path class="cls-4" d="M17.43,188.72c-2.29,0-3.27.03-3.7.03h0c0-.71.58-1.29,1.31-1.3.45,0,1.02-.01,1.74-.01-2.04-.75-3.27-2.39-3.38-4.48h1.47c.19,2.68,2.15,4.48,5.39,4.48h7.08v1.29h-9.91Z"/>
    <path class="cls-4" d="M20.5,170.94c3.79,0,7.16,1.98,7.16,5.82,0,3.48-3.02,5.64-7.14,5.64-3.9,0-7.14-2.03-7.14-5.77,0-3.42,2.83-5.69,7.11-5.69ZM20.53,181.03c3.24,0,5.86-1.65,5.86-4.38s-2.42-4.35-5.86-4.35c-3.21,0-5.86,1.54-5.86,4.4s2.59,4.32,5.86,4.32Z"/>
    <path class="cls-4" d="M17.15,169.3c-1.2,0-2.34,0-3.43.03h0c0-.72.59-1.3,1.33-1.32.54,0,1.07,0,1.26,0-1.39-.57-2.91-1.62-2.91-4.27,0-2.29,1.36-4.32,5.12-4.32h8.82c0,.71-.59,1.29-1.32,1.29h-7.29c-2.42,0-4,.95-4,3.19,0,3.06,2.7,4.12,5.66,4.12h5.62c.73,0,1.32.58,1.32,1.29h0s-10.19,0-10.19,0Z"/>
    <path class="cls-4" d="M13.72,157.98v-2.39s-4.25,0-4.25,0h0c0-.71.59-1.29,1.32-1.29h2.93s0-3.06,0-3.06h1.28v3.06s8.85,0,8.85,0c1.53,0,2.4-.31,2.4-1.54,0-.39-.03-.93-.16-1.34h0c.78,0,1.42.61,1.44,1.37,0,.08,0,.15,0,.22,0,1.65-.87,2.57-3.05,2.57h-9.48s0,2.39,0,2.39h-1.28Z"/>
    <path class="cls-4" d="M20.69,148.48c3.51-.03,5.69-1.7,5.69-4.17,0-1.69-.71-2.61-1.51-3.16-.63-.43-1.05-1.1-1.05-1.85h0c1.8.53,3.84,1.9,3.84,5.06,0,3.91-3.57,5.43-7.03,5.43-3.89,0-7.25-1.83-7.25-5.59,0-3.96,3.62-5.23,6.18-5.23.38,0,.76,0,1.12.03v9.47ZM19.5,140.96c0-.36-.33-.63-.69-.6-2.36.24-4.13,1.6-4.13,3.9,0,2.65,1.96,3.86,4.82,4.14v-7.45Z"/>
    <path class="cls-4" d="M17.15,135.84c-1.2,0-2.34,0-3.43.03h0c0-.72.59-1.3,1.33-1.32.54,0,1.07,0,1.26,0-1.39-.57-2.91-1.62-2.91-4.27,0-2.29,1.36-4.32,5.12-4.32h8.82c0,.71-.59,1.29-1.32,1.29h-7.29c-2.42,0-4,.95-4,3.19,0,3.06,2.7,4.12,5.66,4.12h5.62c.73,0,1.32.58,1.32,1.29h0s-10.19,0-10.19,0Z"/>
    <path class="cls-4" d="M7.27,111.8h16.15c1.31,0,2.56,0,3.92-.03h0c0,.71-.58,1.29-1.31,1.3-.36,0-.72.01-.98.01,1.66.64,2.61,2.08,2.61,4.32,0,3.35-2.89,5.35-6.97,5.35s-7.3-2.19-7.3-5.69c0-2.57,1.17-3.6,2.04-3.99h-6.85c-.73,0-1.32-.58-1.32-1.29h0ZM20.64,121.4c3.73,0,5.75-1.83,5.75-4.04,0-3.4-2.48-4.32-6.18-4.32-3.51,0-5.53.8-5.53,4.09,0,2.55,2.15,4.27,5.97,4.27Z"/>
    <path class="cls-4" d="M15.08,85.06l7.35,4.48c3.57,2.19,5.18,3.76,5.18,6.64s-2.48,4.66-4.85,4.66-4.09-1-6.26-4.81c-1.8-2.62-2.56-3.6-4.3-3.6-1.5,0-2.94.9-2.94,2.63,0,1.62,1.06,2.75,3.05,2.75,1.23,0,2.37-.8,3.92-2.34l11.11-10.66h0c0,1.24-.51,2.42-1.41,3.28l-8.75,8.38c-1.69,1.67-2.94,2.65-4.88,2.65-2.15,0-4.3-1.37-4.3-4.12,0-2.32,1.85-3.91,4.2-3.91,1.85,0,3.05.95,5.12,4.12,2.18,3.63,3.51,4.25,5.34,4.25,1.96,0,3.62-1.6,3.62-3.27,0-2.09-.76-3.48-4.68-5.79l-5.2-3.06c-.81-.48-1.31-1.34-1.31-2.27h0Z"/>
    <path class="cls-4" d="M27.34,72.14l-19.07,4.99h0c0-.85.58-1.6,1.43-1.82,5.05-1.32,13.9-3.6,15.92-3.97v-.03c-1.77-.33-12.31-3.29-17.35-4.56v-1.54c4.66-1.18,15.85-4.07,17.32-4.35v-.03c-2.45-.51-10.98-3.04-15.93-4.43-.82-.23-1.39-.96-1.39-1.8h0s19.07,5.51,19.07,5.51v1.6c-4.49,1.18-15.52,3.99-17.16,4.3v.03c2.48.46,12.42,3.24,17.16,4.53v1.57Z"/>
    <path class="cls-4" d="M20.69,52.71c3.51-.03,5.69-1.7,5.69-4.17,0-1.69-.71-2.61-1.51-3.16-.63-.43-1.05-1.1-1.05-1.85h0c1.8.53,3.84,1.9,3.84,5.06,0,3.91-3.57,5.43-7.03,5.43-3.89,0-7.25-1.83-7.25-5.59,0-3.96,3.62-5.23,6.18-5.23.38,0,.76,0,1.12.03v9.47ZM19.5,45.43c0-.49-.45-.89-.95-.82-2.23.31-3.87,1.65-3.87,3.87,0,2.65,1.96,3.86,4.82,4.14v-7.2Z"/>
    <path class="cls-4" d="M7.27,39.97h0c0-.71.59-1.29,1.32-1.29h7.42c-1.36-.62-2.61-1.88-2.61-4.4,0-3.04,2.64-5.28,6.84-5.28s7.43,2.01,7.43,5.61c0,2.16-.93,3.4-2.48,4.07.28,0,.57,0,.84,0,.73.01,1.31.59,1.31,1.31h0c-1.55-.03-3.1-.03-4.66-.03H7.27ZM20.26,30.36c-3.4,0-5.58,1.6-5.58,4.04,0,3.22,2.32,4.35,5.88,4.35,3.21,0,5.83-1,5.83-4.2,0-2.6-2.29-4.2-6.13-4.2Z"/>
  </g>
</svg>